<svg width="35" height="44" viewBox="0 0 35 44" fill="none" xmlns="http://www.w3.org/2000/svg">
<path d="M15.5739 14.6729C14.4006 13.4153 12.9587 12.4255 11.3628 11.8209C8.79189 10.8237 5.82957 10.9361 3.3375 12.0738L2.24756 9.22347C4.85718 8.3336 7.72461 8.2662 10.3431 9.08189C12.8974 9.86748 15.1904 11.4945 16.8153 13.6209L15.5739 14.6729Z" fill="#60D8F4"/>
<path d="M17.2949 14.7633L15.7871 15.3639C15.7431 15.2471 15.6967 15.1313 15.6505 15.0156L15.7547 14.8276C15.6666 14.7621 15.5787 14.6955 15.4906 14.6311C14.4077 12.0942 12.8005 9.80043 10.6338 8.14801C9.71408 7.47501 8.11836 6.46297 6.93009 6.66047L6.69392 5.82488C6.54532 5.29733 6.50011 4.7456 6.56083 4.20059C7.1397 4.21578 7.71176 4.37128 8.23656 4.55593C11.4444 5.69421 13.8462 8.4005 15.5647 11.253C16.2318 12.3688 16.7981 13.5607 17.2949 14.7632" fill="#60D8F4"/>
<path d="M15.6506 15.0152L14.9616 16.254C12.2516 15.1251 7.67945 12.7752 5.28813 9.98829C5.03109 9.66567 4.80068 9.33735 4.59909 9.00429C4.58879 8.98681 4.57823 8.97039 4.56793 8.95291C4.27604 8.46328 4.04911 7.96433 3.90551 7.45828C3.81045 7.12415 3.73984 6.82733 3.6912 6.5596C3.67737 6.47551 3.66332 6.39493 3.65302 6.3167V6.31542C3.63651 6.19521 3.62489 6.07438 3.61816 5.95321C3.62065 5.90642 3.62519 5.86208 3.63094 5.81876C3.64953 5.67285 3.68312 5.54421 3.73182 5.42974C3.9992 4.79036 4.70905 4.59756 5.62982 4.31235C5.93677 4.21787 6.25058 4.19085 6.561 4.20017C6.54829 4.31394 6.54019 4.42818 6.53671 4.54262C6.53317 4.67584 6.53544 4.80779 6.54347 4.94101C6.55486 5.11873 6.57733 5.29554 6.61075 5.4704C6.63277 5.58973 6.66058 5.70789 6.69409 5.82446L6.93032 6.66005C6.99876 6.82951 7.05881 6.9954 7.18054 7.21981C7.26755 7.37067 7.36103 7.51764 7.46071 7.66031C7.61703 7.887 7.78624 8.10453 7.96797 8.31828C7.99231 8.34866 8.01893 8.37903 8.04454 8.40946C8.24481 8.64303 8.45896 8.87223 8.67908 9.10117C9.93563 10.3818 11.3333 11.5026 12.7773 12.6079C13.6644 13.2915 14.5794 13.9506 15.4908 14.6307C15.5463 14.7581 15.5984 14.8867 15.6507 15.0152" fill="#C5F7FF"/>
<path d="M16.5235 13.6918L17.89 14.5344C17.9541 14.4308 18.0192 14.3279 18.0856 14.2257L18.0173 14.0271C18.1151 13.9803 18.2128 13.9323 18.3104 13.8864C19.8213 11.6526 21.8016 9.74455 24.2138 8.54968C25.2327 8.06943 26.9728 7.38545 28.0988 7.7855L28.4788 7.02862C28.7178 6.55178 28.8605 6.03178 28.8986 5.49882C28.3301 5.41035 27.7433 5.4572 27.1977 5.54044C23.8596 6.05858 21.0294 8.21976 18.8408 10.6422C17.9899 11.591 17.2237 12.6302 16.5234 13.6918" fill="#60D8F4"/>
<path d="M30.7649 9.16828C30.6063 9.41164 30.422 9.65142 30.216 9.88513C27.6965 12.7466 21.8843 14.831 18.5376 15.532L18.0851 14.2248C18.1595 14.1103 18.2326 13.9971 18.3095 13.8851C19.3221 13.397 20.3335 12.9297 21.3231 12.4333C22.931 11.6332 24.4965 10.8104 25.9533 9.80792C26.3375 9.53819 26.7059 9.26718 27.0451 8.97304C27.2975 8.75617 27.5356 8.52491 27.7526 8.27553C27.9125 8.08279 28.0003 7.93461 28.0979 7.78514L28.4775 7.02853C28.7163 6.55156 28.8589 6.03146 28.897 5.49843C29.2021 5.54426 30.5772 6.13227 30.849 6.29607C31.8935 6.92612 31.5335 7.98747 30.7649 9.16828ZM15.7182 14.2427C16.4338 12.8691 17.2108 10.5198 17.2523 8.9797C17.3371 6.52983 16.3923 4.06366 14.7336 2.30277L17.2758 0.239014C18.7379 2.31274 19.5528 4.82799 19.533 7.35368C19.5235 9.78901 18.7215 12.223 17.3177 14.1897L16.5118 14.2163L15.7182 14.2427" fill="#C5F7FF"/>
<path d="M32.7245 21.1075L32.7099 22.6102L32.7052 23.2444L32.6651 27.4845L32.6348 30.6966L32.5655 38.0072L32.5354 41.2192L32.4904 43.2136H1.77482L1.72803 41.04L1.69872 37.8869L1.63128 30.7153L1.60118 27.5635L1.56115 23.2444L1.55513 22.6102L1.5415 21.1075H32.7245" fill="#05B6D3"/>
<path d="M32.7052 23.2449L32.703 23.4193L32.6927 24.5991L32.6881 25.0548L32.665 27.4852L32.6351 30.697L32.6201 32.3302L32.612 33.1566L32.6085 33.4832L32.6004 34.3039L32.5844 36.0766L32.5808 36.3938V36.3951L32.567 37.8538L32.566 38.0073L32.5625 38.4107L32.5487 39.8171L32.5452 40.1589L32.5361 41.2201L32.4911 43.2136H1.77513L1.72791 41.0398L1.69924 37.8875L1.65651 33.3042L1.6497 32.544L1.63117 30.7155L1.6289 30.5053L1.62087 29.5671L1.60122 27.5633L1.56104 23.2448H32.7052" fill="#60D8F4"/>
<rect x="0.226562" y="13.4296" width="33.8124" height="16.0217" rx="3" fill="#60D8F4"/>
<rect x="13.8247" y="22.6106" width="16.0223" height="16.0211" rx="3" fill="#60D8F4"/>
<path d="M20.4413 23.2449L20.3958 43.214H13.8706L13.8252 23.2449H20.4413Z" fill="#C5F7FF"/>
<path d="M20.7251 22.6112H13.5417V13.4294H20.7252V22.6112" fill="#C5F7FF"/>
<path d="M7.84369 22.6101L7.68817 22.1777L8.31486 22.6101H7.84369ZM9.92185 22.6101H9.24336L9.62813 21.5499L9.92185 22.6101ZM11.3871 22.6101H11.0277L11.514 22.3288L11.3871 22.6101ZM10.9667 24.8721L12.0311 26.1566L10.4241 25.7405L10.4206 27.4143L9.45296 26.0542L8.38399 27.3342L8.51062 25.665L6.87601 25.953L8.03618 24.7559L6.60082 23.9167L8.25281 23.7516L8.07061 23.2447H11.1026L10.8297 23.8528L12.4631 24.1469L10.9667 24.8721ZM9.35748 37.6235L9.92803 36.0517L10.3753 37.6637L11.8137 36.8296L11.1293 38.3545L12.7626 38.6484L11.2669 39.3728L12.3307 40.6573L10.7235 40.242L10.7202 41.9161L9.75355 40.5555L8.68452 41.8357L8.81058 40.1667L7.17639 40.454L8.33635 39.2573L6.9012 38.4174L8.55213 38.2527L7.98791 36.6786L9.35748 37.6235ZM5.37733 33.1088L3.72312 32.981L4.00882 34.6304L2.8223 33.46L1.98949 34.9083L1.82694 33.2426L1.65653 33.304L1.64971 32.5439L1.63118 30.7154L1.62891 30.5052L1.92717 30.6411L2.21868 28.994L2.93636 30.5027L4.20934 29.4286L3.79801 31.0514L5.45675 31.0549L4.10905 32.0301L5.37733 33.1088ZM7.90601 16.6912L6.2518 16.5634L6.53629 18.2128L5.35092 17.0423L4.51796 18.4907L4.35562 16.8248L2.79462 17.3933L3.73115 16.0111L2.17369 15.4358L3.7716 14.9849L2.94439 13.5331L4.45585 14.2235L4.59633 13.4296H5.15268L5.46504 14.0851L6.24129 13.4296H6.63176L6.32668 14.6338L7.98543 14.6361L6.63757 15.6125L7.90601 16.6912ZM20.919 28.6691L21.4896 27.0973L21.9369 28.7092L23.3753 27.8751L22.691 29.4001L24.3242 29.694L22.8287 30.4184L23.8925 31.7027L22.2853 31.2876L22.2818 32.9616L21.3151 31.6012L20.2461 32.8813L20.3723 31.2123L18.7379 31.4995L19.8979 30.3027L18.4628 29.4627L20.1137 29.2983L19.5495 27.7242L20.919 28.6691ZM27.3971 23.2447H28.2761L27.3096 24.4015L27.3971 23.2447ZM28.466 23.2447H29.3473L29.345 24.4826L28.466 23.2447ZM29.8911 21.9394L30.4464 22.6101H26.1979L26.9606 21.8232L25.5263 20.984L27.1772 20.8189L26.6126 19.245L27.9823 20.1901L28.5525 18.6172L28.9995 20.2296L30.4384 19.3962L29.7539 20.9211L31.3875 21.2142L29.8911 21.9394Z" fill="#C0F6F9"/>
<path d="M26.4036 42.6377L26.8805 43.2143H22.8013L23.473 42.5215L22.0376 41.6822L23.6884 41.5172L23.1239 39.9432L24.4935 40.8883L25.0649 39.3154L25.512 40.9279L26.9497 40.0944L26.2653 41.6183L27.8988 41.9125L26.4035 42.6377" fill="#C0F6F9"/>
<path d="M32.6125 33.1569L32.4029 33.3081L32.609 33.4835L32.601 34.3043L32.0182 34.2602L32.3027 35.9096L31.1161 34.7389L30.2843 36.1873L30.1208 34.5206L28.5609 35.0901L29.4975 33.7079L27.939 33.1326L29.5367 32.6815L28.7107 31.2298L30.2222 31.9202L30.5135 30.2718L31.2314 31.7818L32.5042 30.7077L32.0929 32.3293L32.6206 32.3305L32.6125 33.1569Z" fill="#C0F6F9"/>
</svg>
