<svg width="21" height="21" viewBox="0 0 21 21" fill="none" xmlns="http://www.w3.org/2000/svg">
<path d="M18.598 10.2959C18.598 10.862 18.5427 11.4227 18.4323 11.978C18.3222 12.532 18.1579 13.0738 17.9416 13.5956C17.7256 14.1174 17.4587 14.6168 17.1448 15.0863C16.8312 15.556 16.472 15.9937 16.0725 16.393C15.6732 16.7925 15.2355 17.1517 14.7658 17.4653C14.2963 17.7792 13.7969 18.0461 13.2751 18.2621C12.7533 18.4784 12.2115 18.6427 11.6575 18.7528C11.1036 18.8631 10.5402 18.9186 9.97544 18.9185C9.40933 18.9185 8.84855 18.8632 8.2932 18.7528C7.73927 18.6427 7.19752 18.4784 6.6758 18.2621C6.15393 18.0461 5.65462 17.7792 5.18507 17.4653C4.71534 17.1517 4.27765 16.7925 3.87834 16.393C3.47886 15.9937 3.1197 15.556 2.80603 15.0863C2.49214 14.6168 2.22526 14.1174 2.00926 13.5956C1.793 13.0738 1.62866 12.532 1.51861 11.978C1.40829 11.4241 1.35279 10.8607 1.35291 10.2959C1.35291 9.72983 1.40814 9.16904 1.51861 8.6137C1.62867 8.05976 1.79301 7.51801 2.00926 6.99629C2.22526 6.47443 2.49214 5.97511 2.80603 5.50557C3.1197 5.03584 3.47886 4.59815 3.87834 4.19883C4.27765 3.79936 4.71534 3.44019 5.18507 3.12653C5.65462 2.81264 6.15393 2.54576 6.6758 2.32975C7.19752 2.1135 7.73927 1.94916 8.2932 1.83911C8.84715 1.72878 9.41061 1.67327 9.97544 1.6734C10.5415 1.6734 11.1022 1.72864 11.6575 1.83911C12.2115 1.94916 12.7533 2.1135 13.2751 2.32975C13.7969 2.54576 14.2963 2.81264 14.7658 3.12653C15.2355 3.44019 15.6732 3.79936 16.0725 4.19883C16.472 4.59815 16.8312 5.03584 17.1448 5.50557C17.4587 5.97511 17.7256 6.47443 17.9416 6.99629C18.1579 7.51801 18.3222 8.05976 18.4323 8.6137C18.5426 9.16764 18.5981 9.73111 18.598 10.2959Z" fill="#43AFF6"/>
<path d="M17.546 4.01505C17.0526 3.45203 16.4968 2.94688 15.8893 2.50933C15.2822 2.07135 14.6273 1.70376 13.9372 1.41363C13.2473 1.12297 12.5266 0.911641 11.7889 0.783695C11.0514 0.655208 10.3017 0.610923 9.55421 0.651692C8.80664 0.691956 8.06606 0.817024 7.34672 1.02449C6.62724 1.2314 5.9336 1.51939 5.27915 1.8829C4.62445 2.24594 4.01311 2.68217 3.4569 3.18322C2.9003 3.68387 2.40237 4.24614 1.97271 4.8592C1.74846 5.17816 1.54281 5.5098 1.35678 5.85247C0.65086 7.16394 0.261852 8.56346 0.189756 10.0512C0.140191 11.018 0.232546 11.9868 0.463877 12.9268C0.654599 13.7028 0.938474 14.4529 1.30932 15.1608C1.68004 15.8687 2.13503 16.5292 2.66436 17.1279C3.19359 17.7266 3.7933 18.2592 4.45043 18.714C5.10742 19.1689 5.81702 19.5427 6.56378 19.8272C7.31044 20.1118 8.08879 20.3052 8.88188 20.4029C9.67498 20.5009 10.477 20.5025 11.2705 20.4078C12.064 20.3134 12.8432 20.1233 13.5911 19.8417C14.339 19.5603 15.0501 19.1894 15.709 18.7372C16.3679 18.2851 16.9698 17.755 17.5015 17.1585C18.0333 16.562 18.491 15.9033 18.8646 15.197C19.2384 14.4907 19.5254 13.7417 19.7194 12.9665C19.9135 12.1913 20.0131 11.3955 20.0161 10.5964C20.0193 9.79732 19.9258 9.00077 19.7378 8.22412C19.5499 7.4474 19.2687 6.69626 18.9004 5.98706C18.5322 5.27779 18.0796 4.61564 17.5525 4.01505H17.546ZM6.78344 11.9249C7.6211 12.5136 8.4056 12.8663 9.21603 12.9972V11.4244C7.1102 10.9407 6.03784 10.2223 6.03784 8.60016V8.57422C6.03784 7.03116 7.16337 5.95879 9.16417 5.81486V5.06926H10.5244V5.85376C11.5306 5.95918 12.45 6.29931 13.2825 6.87426L12.2101 8.62609C11.6794 8.26052 11.0853 7.9967 10.4583 7.84808V9.36521C12.533 9.84887 13.5833 10.5945 13.5833 12.2179V12.2439C13.5833 13.8388 12.354 14.8191 10.4972 14.9903V16.2714H9.13823V14.9552C7.84802 14.8315 6.67101 14.3992 5.60734 13.6586L6.78344 11.9249Z" fill="#154263"/>
<path d="M11.3221 12.4065V12.3806C11.3221 12.0266 11.1249 11.8307 10.4454 11.6349V13.0731C11.0471 13.0083 11.3221 12.7852 11.3221 12.4065ZM9.22889 7.72351C8.58823 7.77668 8.33923 8.03865 8.33923 8.37844V8.40437C8.33923 8.74416 8.52339 8.93998 9.22889 9.13711V7.72351Z" fill="#154263"/>
</svg>
